<svg id="Layer_1" data-name="Layer 1" xmlns="http://www.w3.org/2000/svg" viewBox="0 0 245 49">
    <defs>
        <radialGradient id="radial-gradient" cx="-838.96" cy="575.09" fx="-838.96" fy="575.09" r="1"
            gradientTransform="matrix(-63.3507 69.37788 70.63325 64.49702 -93701.12 21084.65)"
            gradientUnits="userSpaceOnUse">
            <stop offset="0" stop-color="#ffefdd" />
            <stop offset=".99" stop-color="#5e44ff" />
        </radialGradient>
        <radialGradient id="radial-gradient-2" cx="-838.96" cy="575.09" fx="-838.96" fy="575.09"
            r="1" gradientTransform="matrix(-63.3507 69.37788 70.63325 64.49702 -93701.12 21084.65)"
            gradientUnits="userSpaceOnUse">
            <stop offset="0" stop-color="#ffefdd" />
            <stop offset=".99" stop-color="#5e44ff" />
        </radialGradient>
        <radialGradient id="radial-gradient-3" cx="-838.96" cy="575.09" fx="-838.96" fy="575.09"
            r="1" gradientTransform="matrix(-63.3507 69.37788 70.63325 64.49702 -93701.12 21084.65)"
            gradientUnits="userSpaceOnUse">
            <stop offset="0" stop-color="#ffefdd" />
            <stop offset=".99" stop-color="#5e44ff" />
        </radialGradient>
        <style>.cls-4{stroke-width:0;fill:#1d0642}</style>
    </defs>
    <path
        d="M43.32 19.12c0 1.86-1.24 3.56-3.28 4.84h-.01l-.73.43-1.32.76c-2.06-.83-4.57-1.32-7.27-1.32-3.23 0-6.17.69-8.4 1.83l-16.64 9.6C2.44 33.96.33 31.81.33 29.38c0-1.86 1.24-3.56 3.27-4.84l2.06-1.19c2.06.83 4.57 1.32 7.27 1.32 3.21 0 6.15-.69 8.37-1.82l16.66-9.61c3.23 1.3 5.34 3.45 5.34 5.88Z"
        style="stroke-width:0;fill:url(#radial-gradient)" />
    <path
        d="M43.32 31.03c0 1.86-1.24 3.56-3.28 4.84h-.01l-.73.43-17.98 10.37c-2.23 1.13-5.16 1.82-8.37 1.82-6.97 0-12.61-3.22-12.61-7.2 0-1.86 1.24-3.56 3.27-4.84l2.06-1.19c2.06.83 4.57 1.32 7.28 1.32 3.21 0 6.15-.69 8.37-1.82l16.66-9.61c3.23 1.31 5.34 3.45 5.34 5.88Z"
        style="fill:url(#radial-gradient-2);stroke-width:0" />
    <path
        d="M43.32 7.2c0 1.86-1.24 3.56-3.28 4.84h-.01l-.73.43-1.32.76c-2.06-.83-4.56-1.32-7.27-1.32-3.23 0-6.17.69-8.4 1.83l-16.64 9.6C2.44 22.04.33 19.89.33 17.46c0-1.86 1.24-3.56 3.27-4.84L22.31 1.83C24.54.69 27.48 0 30.71 0c6.97 0 12.61 3.22 12.61 7.2Z"
        style="fill:url(#radial-gradient-3);stroke-width:0" />
    <path class="cls-4"
        d="M89.61 39.87V8.56c0-.3.25-.55.55-.55h3.26c.28 0 .55.14.72.37l17.31 24.64c.07.1.22.05.22-.07V8.56c0-.3.25-.55.55-.55h3.16c.31 0 .55.25.55.55v31.31c0 .3-.25.55-.55.55h-3.43c-.18 0-.35-.09-.45-.23L94.31 15.71c-.14-.19-.44-.1-.44.14v24.02c0 .3-.25.55-.55.55h-3.16c-.3 0-.55-.25-.55-.55ZM135.27 41.12c-3.4 0-6.28-.71-8.65-2.14-2.37-1.42-4.18-3.41-5.42-5.94-1.24-2.53-1.86-5.47-1.86-8.8s.62-6.26 1.86-8.8c1.24-2.54 3.04-4.52 5.42-5.94 2.37-1.42 5.25-2.14 8.65-2.14 3.95 0 7.2.95 9.75 2.86 2.4 1.79 4.09 4.16 5.08 7.11.1.31-.09.65-.4.73l-3.21.81a.54.54 0 0 1-.64-.37c-.72-2.18-1.91-3.93-3.58-5.23-1.79-1.4-4.13-2.09-7-2.09-2.54 0-4.66.55-6.35 1.64-1.69 1.09-2.96 2.63-3.81 4.59-.85 1.96-1.29 4.24-1.3 6.82-.02 2.58.4 4.85 1.26 6.81.85 1.96 2.13 3.49 3.84 4.59 1.71 1.1 3.83 1.65 6.37 1.65 2.88 0 5.21-.7 7-2.1 1.67-1.3 2.86-3.05 3.58-5.22a.54.54 0 0 1 .64-.37l3.21.81c.31.08.51.42.4.73-.99 2.96-2.69 5.33-5.08 7.11-2.55 1.91-5.8 2.86-9.75 2.86ZM167.65 41.13c-3.4 0-6.28-.71-8.65-2.14-2.37-1.42-4.18-3.41-5.42-5.94-1.24-2.53-1.86-5.47-1.86-8.8s.62-6.26 1.86-8.8c1.24-2.54 3.04-4.52 5.42-5.94 2.37-1.42 5.25-2.14 8.65-2.14s6.3.71 8.67 2.14c2.37 1.42 4.17 3.41 5.4 5.94 1.23 2.54 1.85 5.47 1.85 8.8s-.62 6.26-1.85 8.8c-1.23 2.54-3.03 4.52-5.4 5.94-2.37 1.42-5.26 2.14-8.67 2.14Zm0-3.83c2.54.01 4.66-.53 6.35-1.63 1.69-1.1 2.96-2.64 3.81-4.6.85-1.96 1.28-4.24 1.28-6.82s-.43-4.85-1.28-6.81c-.85-1.96-2.12-3.49-3.81-4.58-1.69-1.1-3.81-1.65-6.35-1.67-2.54-.02-4.65.52-6.34 1.62-1.68 1.1-2.95 2.63-3.8 4.6-.85 1.97-1.29 4.25-1.3 6.83-.02 2.58.4 4.85 1.26 6.8.85 1.95 2.13 3.48 3.83 4.58 1.7 1.1 3.82 1.66 6.36 1.68ZM212.23 39.63l-6.4-12.03c1.65-.58 2.98-1.54 3.97-2.82 1.41-1.83 2.13-4.01 2.13-6.54 0-1.71-.33-3.28-.99-4.71-.63-1.42-1.62-2.59-2.92-3.52-1.29-.96-2.92-1.54-4.81-1.83-.45-.06-.9-.12-1.38-.15-.48 0-.87-.03-1.23-.03h-13.38c-.3 0-.57.26-.57.55v31.32c0 .29.27.55.57.55h3.21c.33 0 .57-.26.57-.55V29.01c0-.32.27-.55.57-.55h9.77l6.16 11.65c.09.2.27.32.51.32h3.7c.45 0 .72-.44.51-.81Zm-20.64-14.96c-.3 0-.57-.26-.57-.55V12.39c0-.32.27-.55.57-.55h8.87c.33 0 .66.03 1.08.06.39.03.78.06 1.14.15 1.11.23 2.04.67 2.74 1.31.69.64 1.23 1.4 1.56 2.27.33.87.48 1.74.48 2.64s-.15 1.77-.48 2.64c-.33.87-.87 1.6-1.56 2.24-.69.64-1.62 1.07-2.74 1.34-.36.06-.75.12-1.14.15-.42.03-.75.06-1.08.06h-8.87ZM215.68 39.89V8.58c0-.3.26-.55.59-.55h10.72c.37 0 1.03 0 1.96.02.93.01 1.83.07 2.68.18 2.84.33 5.21 1.24 7.12 2.74 1.91 1.49 3.35 3.39 4.32 5.69.97 2.3 1.45 4.83 1.45 7.57s-.49 5.29-1.45 7.6c-.97 2.3-2.41 4.2-4.32 5.68-1.91 1.49-4.29 2.4-7.12 2.72-.85.1-1.75.17-2.69.18-.95.02-1.59.02-1.95.02h-10.72c-.33 0-.59-.25-.59-.55Zm4.14-3.83c0 .3.27.55.59.55l7.22.03c.64 0 1.37-.02 2.17-.06.8-.04 1.5-.1 2.09-.19 2-.33 3.63-1.07 4.87-2.23 1.24-1.16 2.15-2.6 2.72-4.32.58-1.73.87-3.59.87-5.58s-.29-3.92-.88-5.64c-.59-1.72-1.5-3.15-2.75-4.3s-2.86-1.88-4.83-2.19c-.59-.1-1.3-.17-2.12-.2-.82-.03-1.53-.05-2.14-.05l-7.22-.03c-.33 0-.59.25-.59.55v23.66ZM83.34 28.91a.495.495 0 0 0-.7.24 12.719 12.719 0 0 1-11.71 7.7h-.02c-3.97 0-7.5-1.81-9.84-4.64 0 0 22.21-12.77 22.23-12.78a3.92 3.92 0 0 0 1.74-3.25c0-.8-.24-1.54-.65-2.16-.05-.07-.21-.28-.25-.33-3.1-3.86-7.87-6.33-13.22-6.33h-.02c-5.5 0-10.39 2.62-13.47 6.67-.84 1.1-1.55 2.3-2.09 3.59-.86 2.01-1.33 4.22-1.34 6.54v.03c0 2.31.47 4.52 1.32 6.53.54 1.29 1.24 2.5 2.09 3.6 3.08 4.07 7.98 6.7 13.5 6.71h.02c5.51 0 10.41-2.63 13.5-6.69.75-.98 1.39-2.05 1.9-3.18.11-.24.02-.52-.21-.64l-2.78-1.6ZM58.2 24.19v-.03c0-1.56.29-3.06.81-4.44.49-1.32 1.2-2.53 2.09-3.6 2.33-2.81 5.86-4.6 9.8-4.6h.02c2.64 0 5.1.8 7.13 2.17 1.01.68 1.9 1.49 2.68 2.42L58.99 28.6c-.52-1.37-.8-2.87-.8-4.42Z" />
</svg>